<?xml version="1.0" standalone="no"?>
<!DOCTYPE svg PUBLIC "-//W3C//DTD SVG 20010904//EN"
 "http://www.w3.org/TR/2001/REC-SVG-20010904/DTD/svg10.dtd">
<svg version="1.0" xmlns="http://www.w3.org/2000/svg"
 width="225.000000pt" height="225.000000pt" viewBox="0 0 225.000000 225.000000"
 preserveAspectRatio="xMidYMid meet">
<metadata>
Created by potrace 1.14, written by Peter Selinger 2001-2017
</metadata>
<g transform="translate(0.000000,225.000000) scale(0.100000,-0.100000)"
fill="#000000" stroke="none">
<path d="M960 2165 c-219 -35 -402 -128 -567 -288 -428 -416 -428 -1088 0
-1504 96 -94 179 -151 291 -203 283 -132 608 -130 891 5 523 248 748 869 505
1392 -198 427 -656 671 -1120 598z m74 -922 c50 -215 92 -390 94 -388 2 1 32
128 68 281 35 154 76 330 90 392 l26 112 154 0 154 0 0 -515 0 -515 -100 0
-100 0 -1 418 -1 417 -74 -325 c-40 -179 -83 -367 -95 -417 l-21 -93 -104 0
c-57 0 -104 1 -104 3 0 1 -43 189 -94 417 l-94 415 -1 -417 -1 -418 -100 0
-100 0 0 515 0 516 157 -3 156 -3 91 -392z"/>
</g>
</svg>
